<?xml version="1.0" encoding="utf-8"?>
<!-- Generator: Adobe Illustrator 24.1.1, SVG Export Plug-In . SVG Version: 6.00 Build 0)  -->
<svg version="1.1" id="Layer_1" xmlns="http://www.w3.org/2000/svg" xmlns:xlink="http://www.w3.org/1999/xlink" x="0px" y="0px"
	 viewBox="0 0 1000 1000" style="enable-background:new 0 0 1000 1000;" xml:space="preserve">
<style type="text/css">
	.st0{fill:none;stroke:#000000;stroke-width:1.3264;stroke-miterlimit:10;}
	.st1{fill:#AE181D;}
	.st2{fill:none;stroke:#9B1C20;stroke-width:4.647;stroke-miterlimit:10;}
	.st3{fill:none;stroke:#9B1C20;stroke-width:9.294;stroke-miterlimit:10;}
	.st4{stroke:#000000;stroke-width:1.1617;stroke-miterlimit:10;}
	.st5{stroke:#000000;stroke-width:1.1526;stroke-miterlimit:10;}
	.st6{stroke:#000000;stroke-width:1.1136;stroke-miterlimit:10;}
</style>
<path class="st0" d="M61.84,271.6"/>
<g>
	<path class="st1" d="M420.44,470.65c0,55.01,0,106.61,0,158.67c15.44,0,29.75,0,45.95,0c0-20.62,0-40.6,0-60.57
		c1.63-0.39,3.25-0.79,4.88-1.18c21.88,19.39,43.76,38.78,66.92,59.31c23.5-20.75,45.37-40.06,67.23-59.37
		c1.52,0.3,3.04,0.59,4.56,0.89c0,20.24,0,40.48,0,60.81c17,0,31.29,0,45.69,0c0-52.33,0-103.85,0-158.33
		c-40.59,35.91-78.52,69.47-117.47,103.92C498.49,539.67,460.84,506.37,420.44,470.65z"/>
	<path d="M140.36,554.49c-30.56-29-58.93-55.93-88.33-83.84c0,51.27,0,100.49,0,149.36c9.91,0,18.95,0,29.33,0
		c0-26.89,0-52.84,0-81.09c29.84,28.37,57.8,54.94,87.46,83.13c0-51.41,0-100.22,0-148.95c-9.57,0-18.26,0-28.45,0
		C140.36,499.87,140.36,525.82,140.36,554.49z"/>
	<path d="M919.55,473.4c0,26.8,0,52.7,0,81.06c-30.46-28.9-58.83-55.81-88.36-83.81c0,51.43,0,100.43,0,149.63
		c10.01,0,19.39,0,30.06,0c0-26.84,0-52.81,0-80.73c29.59,28.1,57.49,54.59,86.73,82.35c0-51.08,0-99.89,0-148.49
		C938.45,473.4,929.77,473.4,919.55,473.4z"/>
	<path d="M218.3,558.24c15.01,0,29.11,0,43.41,0c0-9.99,0-18.65,0-28.44c-6.96,0-13.08,0-19.21,0c-27.35,0-27.36,0-24.61-27.08
		c0.07-0.68,0.77-1.3,2.1-3.42c18.16,0,37.28,0,56.04,0c0-10.56,0-19.63,0-28.66c-29.34,0-57.79,0-86.62,0c0,49.51,0,98.34,0,147.12
		c29.55,0,58.28,0,87.15,0c0-9.74,0-18.57,0-29.11c-19.99,0-38.81,0-58.26,0C218.3,578.34,218.3,568.95,218.3,558.24z"/>
	<path d="M676.27,620.62c4.57,0.32,7.2,0.34,9.77,0.71c14.26,2.06,25.68-0.15,29.57-16.93c0.59-2.56,6.03-5.35,9.43-5.64
		c9.22-0.78,18.63,0.49,27.81-0.46c11.57-1.19,19.03,1.87,22.33,13.96c0.96,3.53,5.36,8.08,8.73,8.6
		c8.13,1.26,16.58,0.41,26.68,0.41c-22.61-50.51-44.4-99.21-67.41-150.62C720.23,522.09,698.5,570.8,676.27,620.62z M730.17,572.23
		c4.37-10.38,8.04-19.12,12.92-30.72c5.02,11.41,8.97,20.42,13.5,30.72C747.18,572.23,739.67,572.23,730.17,572.23z"/>
	<path d="M297.15,500.03c12.37,0,24.05,0,36.98,0c0,40.46,0,79.27,0,117.83c10.4,0,19.47,0,29.44,0c0-39.34,0-77.85,0-118.42
		c13.08,0,24.52,0,36.28,0c0-10.24,0-19.29,0-28.8c-34.51,0-68.3,0-102.7,0C297.15,480.33,297.15,489.35,297.15,500.03z"/>
	<g>
		<g>
			<path class="st2" d="M521.42,365c0.19-0.05,0.37-0.11,0.55-0.17c1.24-0.43,2.2-1.16,2.26-2.74c0.02-0.89-0.35-1.68-0.95-2.21
				c-0.45-0.39-1.02-0.64-1.66-0.66c-0.21-0.01-0.43,0.01-0.65,0.06c-1.25,0.25-2.49,0.66-3.64,1.19c-1.68,0.76-2.15,2.76-1.08,4.17
				C517.82,366.68,519.66,365.49,521.42,365z"/>
			<path class="st2" d="M594.87,406.59c-4.2-28.86-29.77-50.4-58.91-49.63c-2.04,0.05-3.34,1.22-3.28,2.92
				c0.07,1.62,1.33,2.59,3.32,2.67c2.69,0.1,5.41,0.09,8.07,0.45c30.96,4.24,51.38,33.73,44.47,64.11
				c-7.7,33.82-46.58,51.28-76.68,34.18c-18.08-10.27-27.07-26.19-27.4-46.98c-0.04-2.36-0.95-3.56-2.75-3.57
				c-1.79-0.01-2.89,1.25-2.84,3.52c0.06,2.76,0.1,5.53,0.44,8.26c3.63,29.02,28.39,50.84,57.81,51.23
				c3.71-0.42,7.47-0.6,11.12-1.31C579.07,466.39,599.39,437.63,594.87,406.59z"/>
			<path class="st2" d="M508.49,412.23c-0.55,0-1.1-0.01-1.66,0c-1.95,0.06-3.18,1.16-3.17,2.83c0.01,1.63,1.13,2.66,3.02,2.76
				c0.61,0.03,1.23,0.02,1.84,0.02c6.44,0,12.88,0.02,19.31-0.02c1.13-0.01,1.87,0.29,2.64,1.19c2.81,3.31,7.91,3.41,10.95,0.34
				c3.01-3.05,2.81-7.9-0.33-10.86c-0.6-0.57-1.06-1.61-1.07-2.44c-0.02-1.21-0.04-2.42-0.05-3.63c-0.03-3.63,0-7.27,0-10.9
				c0-4.84,0-9.69,0-14.53c0-2.35-0.92-3.55-2.72-3.58c-1.86-0.03-2.82,1.21-2.83,3.67c0,0.49,0,0.98,0,1.47
				c0,8.89-0.01,17.78,0.02,26.67c0,1.02-0.32,1.48-1.25,2.07c-1.48,0.95-2.83,2.29-3.83,3.74c-0.62,0.89-1.09,1.23-2.1,1.22
				C521,412.22,514.75,412.23,508.49,412.23z"/>
			<path class="st2" d="M504.42,373.83c1.28-0.67,2.43-1.63,3.51-2.6c0.45-0.4,0.58-1.16,0.71-1.46c-0.05-2.32-2.14-3.72-3.91-2.81
				c-1.23,0.63-2.39,1.49-3.4,2.43c-1.06,0.98-1.12,2.28-0.29,3.49C501.88,374.11,503.17,374.48,504.42,373.83z"/>
			<path class="st2" d="M483.05,402.1c1.3,0.48,2.55,0.11,3.17-1.09c0.72-1.38,1.12-2.93,1.52-4.02c-0.06-1.84-0.75-2.8-2.07-3.14
				c-1.39-0.36-2.61,0.09-3.22,1.43c-0.55,1.21-0.99,2.51-1.24,3.81C480.94,400.52,481.7,401.6,483.05,402.1z"/>
			<path class="st2" d="M490.3,386.31c0.88,0.28,2.24,0.07,2.97-0.48c1.02-0.78,1.91-1.98,2.37-3.18c0.33-0.86,0.26-2.36-0.3-2.96
				c-0.64-0.68-2.04-0.97-3.06-0.88c-1.32,0.12-3.67,3.77-3.61,5.74C488.99,384.94,489.51,386.06,490.3,386.31z"/>
		</g>
		<path class="st3" d="M535.43,528.11l141.74-141.74c-36.66-32.77-85.03-52.72-138.08-52.72c-54.91,0-104.8,21.39-141.89,56.24
			L535.43,528.11z"/>
	</g>
	<g>
		<path class="st4" d="M168.01,657.45l-3.13-5.82c-0.38-0.7-0.67-1.21-0.86-1.51c-0.2-0.3-0.39-0.54-0.59-0.71
			c-0.2-0.17-0.42-0.3-0.68-0.39v-0.56h4.83v0.56c-0.71,0.08-1.07,0.39-1.07,0.92c0,0.22,0.05,0.47,0.15,0.74s0.29,0.66,0.55,1.16
			l2.27,4.32l2.24-3.95c0.3-0.54,0.52-0.98,0.64-1.32c0.12-0.34,0.19-0.66,0.19-0.95c0-0.27-0.08-0.49-0.24-0.64
			c-0.16-0.15-0.4-0.25-0.72-0.28v-0.56h4.3v0.56c-0.31,0.11-0.58,0.27-0.82,0.47c-0.23,0.2-0.47,0.47-0.71,0.81
			c-0.24,0.34-0.6,0.91-1.07,1.72l-3.15,5.38v3.68c0,0.43,0.02,0.78,0.07,1.04c0.05,0.27,0.12,0.48,0.23,0.64
			c0.11,0.16,0.25,0.28,0.42,0.37s0.45,0.18,0.82,0.26v0.56h-5.18v-0.56c0.36-0.07,0.63-0.16,0.81-0.24
			c0.17-0.09,0.31-0.21,0.42-0.38c0.11-0.16,0.18-0.37,0.23-0.64c0.05-0.27,0.07-0.62,0.07-1.06V657.45z"/>
		<path class="st4" d="M190.66,664.13c-0.91,0-1.73-0.15-2.48-0.45c-0.75-0.3-1.38-0.76-1.92-1.39c-0.53-0.63-0.95-1.44-1.24-2.42
			c-0.29-0.98-0.44-2.16-0.44-3.53c0-1.69,0.26-3.14,0.77-4.35c0.51-1.21,1.25-2.13,2.21-2.76c0.96-0.63,2.07-0.95,3.33-0.95
			c1.35,0,2.48,0.3,3.4,0.89c0.92,0.59,1.61,1.47,2.08,2.62c0.47,1.15,0.7,2.56,0.7,4.22c0,1.77-0.26,3.26-0.79,4.48
			c-0.53,1.22-1.28,2.13-2.24,2.73S191.95,664.13,190.66,664.13z M186.93,656.02c0,2.32,0.34,4.09,1.02,5.3s1.67,1.82,2.97,1.82
			c0.82,0,1.52-0.26,2.1-0.79c0.58-0.52,1.01-1.29,1.29-2.31c0.29-1.01,0.43-2.2,0.43-3.55c0-1.65-0.17-3.02-0.5-4.1
			c-0.34-1.08-0.8-1.87-1.38-2.36c-0.58-0.49-1.26-0.74-2.03-0.74c-0.68,0-1.26,0.16-1.75,0.48c-0.49,0.32-0.89,0.77-1.21,1.35
			c-0.32,0.59-0.56,1.3-0.7,2.13C187,654.07,186.93,655,186.93,656.02z"/>
		<path class="st4" d="M219.55,658.6c0,0.82-0.08,1.54-0.23,2.13c-0.14,0.57-0.36,1.07-0.65,1.51c-0.26,0.39-0.59,0.73-0.99,1.01
			c-0.39,0.27-0.87,0.49-1.43,0.65c-0.56,0.16-1.22,0.24-1.97,0.24c-0.92,0-1.7-0.1-2.35-0.31c-0.65-0.2-1.19-0.54-1.62-1.01
			c-0.43-0.46-0.74-1.01-0.92-1.64c-0.19-0.63-0.28-1.44-0.28-2.41v-7.47c0-0.59-0.02-0.99-0.06-1.2c-0.04-0.21-0.09-0.37-0.16-0.49
			s-0.18-0.22-0.31-0.31c-0.14-0.09-0.39-0.18-0.76-0.28v-0.56h4.76v0.56c-0.42,0.11-0.72,0.22-0.88,0.36
			c-0.17,0.13-0.28,0.33-0.34,0.59c-0.06,0.27-0.09,0.71-0.09,1.33v8.03c0,0.73,0.08,1.35,0.23,1.85c0.16,0.5,0.37,0.89,0.65,1.16
			c0.28,0.28,0.61,0.48,1,0.6c0.39,0.12,0.87,0.19,1.44,0.19c0.53,0,0.99-0.09,1.4-0.28c0.4-0.19,0.74-0.47,1-0.85
			c0.27-0.38,0.45-0.84,0.55-1.4c0.1-0.55,0.15-1.29,0.15-2.22v-7.09c0-0.66-0.03-1.11-0.1-1.35c-0.06-0.24-0.17-0.43-0.32-0.56
			s-0.45-0.25-0.91-0.37v-0.56h4.53v0.56c-0.44,0.11-0.74,0.24-0.9,0.37c-0.16,0.14-0.27,0.33-0.33,0.59
			c-0.06,0.26-0.09,0.7-0.09,1.32V658.6z"/>
		<path class="st4" d="M235.04,657.22v3.86c0,0.54,0.02,0.94,0.06,1.19c0.04,0.25,0.1,0.43,0.19,0.55c0.08,0.13,0.2,0.23,0.34,0.31
			c0.14,0.08,0.39,0.17,0.74,0.27v0.56h-4.79v-0.56c0.47-0.12,0.78-0.26,0.94-0.4c0.16-0.15,0.26-0.36,0.31-0.63
			c0.05-0.27,0.07-0.69,0.07-1.25v-9.81c0-0.52-0.02-0.9-0.06-1.14c-0.04-0.24-0.1-0.42-0.19-0.55c-0.09-0.13-0.2-0.24-0.35-0.32
			c-0.14-0.08-0.39-0.17-0.74-0.27v-0.56h5.62c1.77,0,3.09,0.32,3.97,0.96c0.88,0.64,1.32,1.64,1.32,3c0,1.04-0.29,1.92-0.86,2.64
			c-0.57,0.73-1.43,1.29-2.57,1.7v0.09c0.46,0.19,0.86,0.46,1.19,0.81c0.33,0.35,0.69,0.9,1.09,1.64l1.02,1.86
			c0.29,0.54,0.55,0.96,0.76,1.25c0.21,0.29,0.43,0.51,0.65,0.66c0.22,0.15,0.51,0.26,0.87,0.32v0.56h-3.14
			c-0.29-0.4-0.56-0.83-0.82-1.29s-0.51-0.93-0.76-1.41l-1-1.89c-0.3-0.57-0.55-1-0.74-1.27s-0.37-0.46-0.53-0.57
			c-0.16-0.11-0.34-0.18-0.52-0.23c-0.18-0.04-0.46-0.06-0.83-0.06H235.04z M235.04,649.51v6.74h1.28c0.66,0,1.19-0.05,1.6-0.14
			c0.41-0.09,0.79-0.27,1.13-0.54s0.63-0.63,0.83-1.11c0.21-0.47,0.31-1.06,0.31-1.74c0-0.72-0.12-1.32-0.37-1.79
			s-0.62-0.84-1.12-1.09c-0.5-0.25-1.17-0.37-2.02-0.37C236.01,649.46,235.46,649.48,235.04,649.51z"/>
		<path class="st4" d="M278.71,663.89l-0.88,0.24l-0.83-0.88c-0.49,0.3-1.01,0.53-1.54,0.67c-0.54,0.14-1.15,0.22-1.85,0.22
			c-1.91,0-3.35-0.66-4.32-1.97c-0.97-1.31-1.45-3.26-1.45-5.85c0-1.61,0.26-3.02,0.79-4.24c0.53-1.22,1.29-2.15,2.28-2.81
			c0.99-0.66,2.16-0.98,3.49-0.98c0.7,0,1.38,0.04,2.03,0.12c0.65,0.08,1.37,0.22,2.17,0.41v3.12h-1.12
			c-0.2-0.68-0.45-1.21-0.73-1.6c-0.28-0.38-0.61-0.65-1.01-0.82c-0.39-0.16-0.88-0.24-1.48-0.24c-0.82,0-1.55,0.27-2.17,0.79
			s-1.1,1.31-1.45,2.34c-0.34,1.03-0.52,2.28-0.52,3.74c0,1.48,0.15,2.75,0.44,3.8c0.29,1.05,0.73,1.84,1.3,2.38
			c0.57,0.53,1.28,0.8,2.12,0.8c0.89,0,1.55-0.2,1.99-0.59c0.43-0.39,0.65-0.99,0.65-1.8v-0.68c0-0.68-0.04-1.17-0.11-1.47
			c-0.07-0.3-0.2-0.54-0.38-0.7c-0.18-0.17-0.48-0.3-0.9-0.41v-0.56h4.58v0.56c-0.27,0.09-0.48,0.2-0.61,0.31
			c-0.14,0.12-0.24,0.26-0.31,0.44c-0.07,0.17-0.12,0.39-0.15,0.64c-0.03,0.25-0.04,0.61-0.04,1.08V663.89z"/>
		<path class="st4" d="M301.8,658.6c0,0.82-0.07,1.54-0.23,2.13c-0.14,0.57-0.36,1.07-0.65,1.51c-0.27,0.39-0.59,0.73-0.99,1.01
			c-0.39,0.27-0.87,0.49-1.43,0.65c-0.56,0.16-1.22,0.24-1.97,0.24c-0.91,0-1.7-0.1-2.35-0.31c-0.66-0.2-1.2-0.54-1.62-1.01
			c-0.43-0.46-0.74-1.01-0.92-1.64c-0.19-0.63-0.28-1.44-0.28-2.41v-7.47c0-0.59-0.02-0.99-0.06-1.2c-0.04-0.21-0.09-0.37-0.17-0.49
			c-0.07-0.12-0.17-0.22-0.31-0.31c-0.14-0.09-0.39-0.18-0.76-0.28v-0.56h4.76v0.56c-0.42,0.11-0.72,0.22-0.88,0.36
			c-0.17,0.13-0.28,0.33-0.34,0.59c-0.06,0.27-0.09,0.71-0.09,1.33v8.03c0,0.73,0.08,1.35,0.23,1.85c0.16,0.5,0.37,0.89,0.65,1.16
			c0.28,0.28,0.61,0.48,1,0.6c0.39,0.12,0.87,0.19,1.44,0.19c0.53,0,0.99-0.09,1.4-0.28c0.4-0.19,0.74-0.47,1-0.85
			c0.27-0.38,0.45-0.84,0.55-1.4c0.1-0.55,0.15-1.29,0.15-2.22v-7.09c0-0.66-0.03-1.11-0.1-1.35c-0.07-0.24-0.17-0.43-0.32-0.56
			c-0.15-0.13-0.45-0.25-0.91-0.37v-0.56h4.53v0.56c-0.44,0.11-0.74,0.24-0.9,0.37c-0.16,0.14-0.27,0.33-0.33,0.59
			c-0.06,0.26-0.09,0.7-0.09,1.32V658.6z"/>
		<path class="st4" d="M320.61,663.95v-0.56c0.38-0.07,0.66-0.16,0.84-0.25c0.19-0.09,0.32-0.22,0.42-0.38
			c0.09-0.16,0.14-0.38,0.14-0.65c0-0.26-0.03-0.54-0.09-0.84c-0.06-0.3-0.15-0.63-0.26-1l-0.42-1.46h-5.29l-0.39,1.11
			c-0.2,0.56-0.32,0.98-0.39,1.27c-0.06,0.29-0.09,0.55-0.09,0.78c0,0.45,0.12,0.79,0.35,1c0.23,0.21,0.58,0.35,1.06,0.42v0.56
			h-4.84v-0.56c0.42-0.07,0.79-0.31,1.11-0.74c0.31-0.42,0.62-1.03,0.91-1.82l4.73-12.56h1.79l3.86,12.65
			c0.18,0.59,0.34,1.04,0.48,1.35c0.14,0.31,0.31,0.55,0.5,0.73c0.2,0.17,0.47,0.3,0.81,0.39v0.56H320.61z M316.25,657.82h4.74
			l-2.16-7.32L316.25,657.82z"/>
		<path class="st4" d="M339.25,657.22v3.86c0,0.54,0.02,0.94,0.06,1.19c0.04,0.25,0.1,0.43,0.19,0.55c0.08,0.13,0.2,0.23,0.34,0.31
			c0.14,0.08,0.39,0.17,0.74,0.27v0.56h-4.79v-0.56c0.47-0.12,0.78-0.26,0.94-0.4c0.16-0.15,0.26-0.36,0.31-0.63
			c0.05-0.27,0.07-0.69,0.07-1.25v-9.81c0-0.52-0.02-0.9-0.06-1.14c-0.04-0.24-0.1-0.42-0.19-0.55c-0.09-0.13-0.2-0.24-0.34-0.32
			c-0.14-0.08-0.39-0.17-0.74-0.27v-0.56h5.62c1.77,0,3.09,0.32,3.97,0.96s1.32,1.64,1.32,3c0,1.04-0.29,1.92-0.86,2.64
			c-0.57,0.73-1.43,1.29-2.57,1.7v0.09c0.46,0.19,0.86,0.46,1.18,0.81c0.33,0.35,0.69,0.9,1.1,1.64l1.02,1.86
			c0.29,0.54,0.55,0.96,0.76,1.25c0.21,0.29,0.43,0.51,0.65,0.66c0.22,0.15,0.51,0.26,0.87,0.32v0.56h-3.14
			c-0.29-0.4-0.56-0.83-0.82-1.29c-0.26-0.46-0.51-0.93-0.76-1.41l-1-1.89c-0.3-0.57-0.55-1-0.74-1.27
			c-0.19-0.27-0.37-0.46-0.53-0.57c-0.16-0.11-0.34-0.18-0.52-0.23c-0.19-0.04-0.47-0.06-0.84-0.06H339.25z M339.25,649.51v6.74
			h1.28c0.66,0,1.19-0.05,1.6-0.14c0.41-0.09,0.79-0.27,1.13-0.54s0.63-0.63,0.83-1.11c0.21-0.47,0.31-1.06,0.31-1.74
			c0-0.72-0.12-1.32-0.37-1.79c-0.25-0.48-0.62-0.84-1.12-1.09c-0.5-0.25-1.17-0.37-2.02-0.37
			C340.22,649.46,339.67,649.48,339.25,649.51z"/>
		<path class="st4" d="M358.57,663.95v-0.56c0.35-0.09,0.6-0.18,0.75-0.26c0.15-0.08,0.27-0.19,0.35-0.32s0.14-0.31,0.18-0.56
			s0.06-0.62,0.06-1.15v-9.81c0-0.53-0.02-0.91-0.06-1.15c-0.04-0.24-0.1-0.42-0.19-0.55c-0.09-0.13-0.2-0.23-0.34-0.31
			c-0.14-0.08-0.39-0.17-0.75-0.27v-0.56h4.97c1.43,0,2.6,0.16,3.51,0.47c0.91,0.32,1.68,0.78,2.31,1.39
			c0.63,0.61,1.1,1.38,1.41,2.28c0.31,0.91,0.47,2,0.47,3.26c0,1.28-0.15,2.4-0.44,3.38c-0.29,0.97-0.72,1.79-1.28,2.44
			c-0.48,0.57-1.08,1.05-1.78,1.42c-0.58,0.3-1.25,0.52-2.02,0.65s-1.78,0.19-3.04,0.19H358.57z M362.03,662.9
			c0.3,0.03,0.75,0.05,1.34,0.05c0.64,0,1.2-0.05,1.7-0.16c0.5-0.11,0.95-0.27,1.36-0.5c0.41-0.23,0.78-0.54,1.1-0.95
			c0.32-0.41,0.59-0.87,0.79-1.4c0.2-0.52,0.35-1.11,0.45-1.75c0.09-0.64,0.14-1.35,0.14-2.11c0-1.54-0.22-2.8-0.66-3.78
			c-0.44-0.98-1.07-1.71-1.87-2.16c-0.8-0.45-1.77-0.68-2.89-0.68c-0.52,0-1,0.02-1.46,0.05V662.9z"/>
		<path class="st4" d="M385.78,661.11c0,0.51,0.02,0.88,0.05,1.11c0.04,0.23,0.09,0.42,0.17,0.56c0.08,0.14,0.2,0.25,0.35,0.34
			c0.16,0.09,0.41,0.18,0.76,0.27v0.56h-4.79v-0.56c0.47-0.12,0.78-0.26,0.94-0.4c0.16-0.15,0.26-0.36,0.31-0.63
			c0.05-0.27,0.07-0.69,0.07-1.25v-9.81c0-0.52-0.02-0.9-0.06-1.14c-0.04-0.24-0.1-0.42-0.19-0.55c-0.09-0.13-0.2-0.24-0.34-0.32
			c-0.14-0.08-0.39-0.17-0.74-0.27v-0.56h4.79v0.56c-0.33,0.08-0.57,0.17-0.72,0.25c-0.15,0.08-0.27,0.19-0.35,0.31
			c-0.09,0.12-0.15,0.31-0.19,0.56c-0.04,0.25-0.06,0.64-0.06,1.16V661.11z"/>
		<path class="st4" d="M405.88,663.95v-0.56c0.38-0.07,0.66-0.16,0.84-0.25c0.19-0.09,0.32-0.22,0.42-0.38
			c0.09-0.16,0.14-0.38,0.14-0.65c0-0.26-0.03-0.54-0.09-0.84c-0.06-0.3-0.15-0.63-0.26-1l-0.42-1.46h-5.29l-0.39,1.11
			c-0.2,0.56-0.32,0.98-0.39,1.27c-0.06,0.29-0.09,0.55-0.09,0.78c0,0.45,0.12,0.79,0.35,1c0.23,0.21,0.58,0.35,1.06,0.42v0.56
			h-4.84v-0.56c0.42-0.07,0.79-0.31,1.11-0.74c0.31-0.42,0.62-1.03,0.91-1.82l4.73-12.56h1.79l3.86,12.65
			c0.18,0.59,0.34,1.04,0.48,1.35c0.14,0.31,0.31,0.55,0.5,0.73c0.2,0.17,0.47,0.3,0.81,0.39v0.56H405.88z M401.52,657.82h4.74
			l-2.16-7.32L401.52,657.82z"/>
		<path class="st4" d="M430.17,657.81c0.27,0.45,0.5,0.85,0.69,1.19c0.19,0.34,0.38,0.72,0.57,1.15h0.15
			c-0.04-0.46-0.07-1.38-0.1-2.75c-0.03-1.37-0.05-2.61-0.05-3.71v-2.38c0-0.52-0.02-0.9-0.05-1.15c-0.03-0.24-0.08-0.43-0.17-0.56
			c-0.08-0.13-0.19-0.23-0.33-0.31c-0.14-0.08-0.39-0.17-0.73-0.27v-0.56h4.08v0.56c-0.34,0.09-0.58,0.17-0.72,0.25
			c-0.14,0.07-0.25,0.17-0.34,0.29c-0.09,0.12-0.15,0.3-0.2,0.54s-0.07,0.64-0.07,1.19v12.72h-1.42l-6.32-10.6
			c-0.39-0.66-0.67-1.14-0.84-1.44c-0.17-0.3-0.32-0.6-0.47-0.9h-0.19c0.05,0.58,0.09,1.64,0.11,3.16c0.02,1.52,0.03,3.04,0.03,4.56
			v2.31c0,0.51,0.02,0.88,0.05,1.11c0.03,0.23,0.09,0.42,0.17,0.56c0.08,0.14,0.2,0.25,0.35,0.34c0.15,0.09,0.41,0.18,0.75,0.27
			v0.56h-4.14v-0.56c0.47-0.12,0.78-0.26,0.94-0.4c0.16-0.15,0.26-0.36,0.31-0.63c0.05-0.27,0.07-0.69,0.07-1.25v-9.81
			c0-0.52-0.02-0.9-0.06-1.14c-0.04-0.24-0.1-0.42-0.19-0.55c-0.09-0.13-0.2-0.24-0.34-0.32c-0.14-0.08-0.39-0.17-0.74-0.27v-0.56
			h3.55L430.17,657.81z"/>
		<path class="st4" d="M466.38,663.95v-0.56c0.38-0.07,0.66-0.16,0.84-0.25c0.19-0.09,0.32-0.22,0.42-0.38
			c0.09-0.16,0.14-0.38,0.14-0.65c0-0.26-0.03-0.54-0.09-0.84c-0.06-0.3-0.15-0.63-0.26-1l-0.42-1.46h-5.29l-0.39,1.11
			c-0.2,0.56-0.32,0.98-0.39,1.27c-0.06,0.29-0.09,0.55-0.09,0.78c0,0.45,0.12,0.79,0.35,1c0.23,0.21,0.58,0.35,1.06,0.42v0.56
			h-4.84v-0.56c0.42-0.07,0.79-0.31,1.11-0.74c0.31-0.42,0.62-1.03,0.91-1.82l4.73-12.56h1.79l3.86,12.65
			c0.18,0.59,0.34,1.04,0.48,1.35c0.14,0.31,0.31,0.55,0.5,0.73c0.2,0.17,0.47,0.3,0.81,0.39v0.56H466.38z M462.02,657.82h4.74
			l-2.16-7.32L462.02,657.82z"/>
		<path class="st4" d="M490.67,657.81c0.27,0.45,0.5,0.85,0.69,1.19c0.19,0.34,0.38,0.72,0.57,1.15h0.15
			c-0.04-0.46-0.07-1.38-0.1-2.75c-0.03-1.37-0.05-2.61-0.05-3.71v-2.38c0-0.52-0.02-0.9-0.05-1.15c-0.03-0.24-0.08-0.43-0.17-0.56
			c-0.08-0.13-0.19-0.23-0.33-0.31c-0.14-0.08-0.39-0.17-0.73-0.27v-0.56h4.08v0.56c-0.34,0.09-0.58,0.17-0.72,0.25
			c-0.14,0.07-0.25,0.17-0.34,0.29c-0.09,0.12-0.15,0.3-0.2,0.54s-0.07,0.64-0.07,1.19v12.72H492l-6.32-10.6
			c-0.39-0.66-0.67-1.14-0.84-1.44c-0.17-0.3-0.32-0.6-0.47-0.9h-0.19c0.05,0.58,0.09,1.64,0.11,3.16c0.02,1.52,0.03,3.04,0.03,4.56
			v2.31c0,0.51,0.02,0.88,0.05,1.11c0.03,0.23,0.09,0.42,0.17,0.56c0.08,0.14,0.2,0.25,0.35,0.34c0.15,0.09,0.41,0.18,0.75,0.27
			v0.56h-4.14v-0.56c0.47-0.12,0.78-0.26,0.94-0.4c0.16-0.15,0.26-0.36,0.31-0.63c0.05-0.27,0.07-0.69,0.07-1.25v-9.81
			c0-0.52-0.02-0.9-0.06-1.14c-0.04-0.24-0.1-0.42-0.19-0.55c-0.09-0.13-0.2-0.24-0.34-0.32c-0.14-0.08-0.39-0.17-0.74-0.27v-0.56
			h3.55L490.67,657.81z"/>
		<path class="st4" d="M516.6,663.89l-0.88,0.24l-0.83-0.88c-0.49,0.3-1.01,0.53-1.54,0.67c-0.54,0.14-1.15,0.22-1.85,0.22
			c-1.91,0-3.35-0.66-4.32-1.97c-0.97-1.31-1.45-3.26-1.45-5.85c0-1.61,0.27-3.02,0.79-4.24c0.53-1.22,1.29-2.15,2.28-2.81
			c0.99-0.66,2.16-0.98,3.49-0.98c0.7,0,1.38,0.04,2.03,0.12c0.65,0.08,1.37,0.22,2.17,0.41v3.12h-1.12
			c-0.2-0.68-0.45-1.21-0.73-1.6c-0.28-0.38-0.61-0.65-1.01-0.82c-0.39-0.16-0.88-0.24-1.48-0.24c-0.82,0-1.55,0.27-2.17,0.79
			s-1.1,1.31-1.45,2.34c-0.34,1.03-0.52,2.28-0.52,3.74c0,1.48,0.15,2.75,0.44,3.8c0.29,1.05,0.73,1.84,1.3,2.38
			c0.57,0.53,1.28,0.8,2.12,0.8c0.89,0,1.55-0.2,1.99-0.59c0.43-0.39,0.65-0.99,0.65-1.8v-0.68c0-0.68-0.04-1.17-0.11-1.47
			c-0.07-0.3-0.2-0.54-0.38-0.7s-0.48-0.3-0.9-0.41v-0.56h4.58v0.56c-0.27,0.09-0.48,0.2-0.61,0.31c-0.14,0.12-0.24,0.26-0.31,0.44
			c-0.07,0.17-0.12,0.39-0.15,0.64c-0.03,0.25-0.04,0.61-0.04,1.08V663.89z"/>
		<path class="st4" d="M538.91,648.46v3.43h-1.11c-0.11-0.37-0.23-0.7-0.35-0.98c-0.12-0.28-0.25-0.52-0.37-0.7
			c-0.13-0.19-0.27-0.34-0.43-0.45c-0.15-0.11-0.34-0.19-0.55-0.23c-0.21-0.04-0.47-0.06-0.76-0.06h-3.59v5.94h2.43
			c0.33,0,0.59-0.05,0.78-0.14c0.19-0.09,0.34-0.25,0.47-0.48c0.12-0.23,0.24-0.58,0.36-1.07h1.07v4.36h-1.07
			c-0.11-0.45-0.22-0.8-0.35-1.03c-0.13-0.23-0.28-0.4-0.46-0.49c-0.18-0.1-0.44-0.15-0.8-0.15h-2.43v6.55h3.53
			c0.37,0,0.67-0.03,0.9-0.1c0.23-0.07,0.43-0.17,0.59-0.33c0.17-0.15,0.31-0.36,0.44-0.61c0.13-0.25,0.24-0.51,0.32-0.78
			c0.09-0.27,0.2-0.66,0.36-1.17h1.12l-0.22,3.98H528.3v-0.56c0.47-0.12,0.78-0.26,0.94-0.4c0.16-0.15,0.26-0.36,0.31-0.63
			c0.05-0.27,0.07-0.69,0.07-1.25v-9.81c0-0.52-0.02-0.9-0.06-1.14c-0.04-0.24-0.1-0.42-0.19-0.55c-0.09-0.13-0.2-0.24-0.34-0.32
			c-0.14-0.08-0.39-0.17-0.74-0.27v-0.56H538.91z"/>
		<path class="st4" d="M553.48,662.91h2.97c0.32,0,0.6-0.02,0.82-0.06s0.41-0.1,0.56-0.17c0.16-0.08,0.29-0.19,0.42-0.33
			c0.12-0.14,0.24-0.32,0.36-0.55s0.22-0.51,0.32-0.86c0.1-0.34,0.23-0.86,0.38-1.55h1.15l-0.23,4.56h-10.2v-0.56
			c0.47-0.12,0.78-0.26,0.94-0.4c0.16-0.15,0.26-0.36,0.31-0.63c0.05-0.27,0.07-0.69,0.07-1.25v-9.81c0-0.52-0.02-0.9-0.06-1.14
			c-0.04-0.24-0.1-0.42-0.19-0.55c-0.09-0.13-0.2-0.24-0.34-0.32c-0.14-0.08-0.39-0.17-0.74-0.27v-0.56h4.78v0.56
			c-0.33,0.09-0.57,0.17-0.71,0.25c-0.14,0.07-0.26,0.17-0.35,0.29c-0.09,0.12-0.16,0.31-0.2,0.56c-0.05,0.25-0.07,0.65-0.07,1.19
			V662.91z"/>
		<path class="st4" d="M587.8,661.11c0,0.51,0.02,0.88,0.05,1.11c0.04,0.23,0.09,0.42,0.17,0.56c0.08,0.14,0.2,0.25,0.35,0.34
			c0.16,0.09,0.41,0.18,0.76,0.27v0.56h-4.79v-0.56c0.47-0.12,0.78-0.26,0.94-0.4c0.16-0.15,0.26-0.36,0.31-0.63
			c0.05-0.27,0.07-0.69,0.07-1.25v-9.81c0-0.52-0.02-0.9-0.06-1.14c-0.04-0.24-0.1-0.42-0.19-0.55c-0.09-0.13-0.2-0.24-0.34-0.32
			c-0.14-0.08-0.39-0.17-0.74-0.27v-0.56h4.79v0.56c-0.33,0.08-0.57,0.17-0.72,0.25c-0.15,0.08-0.27,0.19-0.35,0.31
			c-0.09,0.12-0.15,0.31-0.19,0.56c-0.04,0.25-0.06,0.64-0.06,1.16V661.11z"/>
		<path class="st4" d="M609.35,657.81c0.27,0.45,0.5,0.85,0.69,1.19c0.19,0.34,0.38,0.72,0.57,1.15h0.15
			c-0.04-0.46-0.07-1.38-0.1-2.75c-0.03-1.37-0.05-2.61-0.05-3.71v-2.38c0-0.52-0.02-0.9-0.05-1.15c-0.03-0.24-0.08-0.43-0.17-0.56
			c-0.08-0.13-0.19-0.23-0.33-0.31c-0.14-0.08-0.39-0.17-0.73-0.27v-0.56h4.08v0.56c-0.34,0.09-0.58,0.17-0.72,0.25
			c-0.14,0.07-0.25,0.17-0.34,0.29c-0.09,0.12-0.15,0.3-0.2,0.54c-0.05,0.24-0.07,0.64-0.07,1.19v12.72h-1.42l-6.32-10.6
			c-0.39-0.66-0.67-1.14-0.84-1.44c-0.17-0.3-0.32-0.6-0.47-0.9h-0.19c0.05,0.58,0.09,1.64,0.11,3.16c0.02,1.52,0.03,3.04,0.03,4.56
			v2.31c0,0.51,0.02,0.88,0.05,1.11c0.03,0.23,0.09,0.42,0.17,0.56c0.08,0.14,0.2,0.25,0.35,0.34c0.15,0.09,0.41,0.18,0.75,0.27
			v0.56h-4.14v-0.56c0.47-0.12,0.78-0.26,0.94-0.4c0.16-0.15,0.26-0.36,0.31-0.63c0.05-0.27,0.07-0.69,0.07-1.25v-9.81
			c0-0.52-0.02-0.9-0.06-1.14c-0.04-0.24-0.1-0.42-0.19-0.55c-0.09-0.13-0.2-0.24-0.34-0.32c-0.14-0.08-0.39-0.17-0.74-0.27v-0.56
			h3.55L609.35,657.81z"/>
		<path class="st4" d="M641.36,657.22v3.86c0,0.54,0.02,0.94,0.06,1.19c0.04,0.25,0.1,0.43,0.19,0.55c0.08,0.13,0.2,0.23,0.34,0.31
			c0.14,0.08,0.39,0.17,0.74,0.27v0.56h-4.79v-0.56c0.47-0.12,0.78-0.26,0.94-0.4c0.16-0.15,0.26-0.36,0.31-0.63
			c0.05-0.27,0.07-0.69,0.07-1.25v-9.81c0-0.52-0.02-0.9-0.06-1.14c-0.04-0.24-0.1-0.42-0.19-0.55c-0.09-0.13-0.2-0.24-0.34-0.32
			c-0.14-0.08-0.39-0.17-0.74-0.27v-0.56h5.62c1.77,0,3.09,0.32,3.97,0.96s1.32,1.64,1.32,3c0,1.04-0.29,1.92-0.86,2.64
			c-0.57,0.73-1.43,1.29-2.57,1.7v0.09c0.46,0.19,0.86,0.46,1.18,0.81c0.33,0.35,0.69,0.9,1.1,1.64l1.02,1.86
			c0.29,0.54,0.55,0.96,0.76,1.25c0.21,0.29,0.43,0.51,0.65,0.66c0.22,0.15,0.51,0.26,0.87,0.32v0.56h-3.14
			c-0.29-0.4-0.56-0.83-0.82-1.29c-0.26-0.46-0.51-0.93-0.76-1.41l-1-1.89c-0.3-0.57-0.55-1-0.74-1.27
			c-0.19-0.27-0.37-0.46-0.53-0.57c-0.16-0.11-0.34-0.18-0.52-0.23c-0.19-0.04-0.47-0.06-0.84-0.06H641.36z M641.36,649.51v6.74
			h1.28c0.66,0,1.19-0.05,1.6-0.14c0.41-0.09,0.79-0.27,1.13-0.54s0.63-0.63,0.83-1.11c0.21-0.47,0.31-1.06,0.31-1.74
			c0-0.72-0.12-1.32-0.37-1.79c-0.25-0.48-0.62-0.84-1.12-1.09c-0.5-0.25-1.17-0.37-2.02-0.37
			C642.34,649.46,641.79,649.48,641.36,649.51z"/>
		<path class="st4" d="M671.31,648.46v3.43h-1.11c-0.11-0.37-0.23-0.7-0.35-0.98c-0.12-0.28-0.25-0.52-0.37-0.7
			c-0.13-0.19-0.27-0.34-0.43-0.45c-0.15-0.11-0.34-0.19-0.55-0.23c-0.21-0.04-0.47-0.06-0.76-0.06h-3.59v5.94h2.43
			c0.33,0,0.59-0.05,0.78-0.14c0.19-0.09,0.34-0.25,0.47-0.48c0.12-0.23,0.24-0.58,0.36-1.07h1.07v4.36h-1.07
			c-0.11-0.45-0.22-0.8-0.35-1.03c-0.13-0.23-0.28-0.4-0.46-0.49c-0.18-0.1-0.44-0.15-0.8-0.15h-2.43v6.55h3.53
			c0.37,0,0.67-0.03,0.9-0.1c0.23-0.07,0.43-0.17,0.59-0.33c0.17-0.15,0.31-0.36,0.44-0.61c0.13-0.25,0.24-0.51,0.32-0.78
			c0.09-0.27,0.2-0.66,0.36-1.17h1.12l-0.22,3.98H660.7v-0.56c0.47-0.12,0.78-0.26,0.94-0.4c0.16-0.15,0.26-0.36,0.31-0.63
			c0.05-0.27,0.07-0.69,0.07-1.25v-9.81c0-0.52-0.02-0.9-0.06-1.14c-0.04-0.24-0.1-0.42-0.19-0.55c-0.09-0.13-0.2-0.24-0.34-0.32
			c-0.14-0.08-0.39-0.17-0.74-0.27v-0.56H671.31z"/>
		<path class="st4" d="M682.42,663.95v-0.56c0.35-0.09,0.6-0.18,0.75-0.26c0.15-0.08,0.27-0.19,0.35-0.32
			c0.08-0.13,0.14-0.31,0.18-0.56c0.04-0.24,0.06-0.62,0.06-1.15v-9.81c0-0.53-0.02-0.91-0.06-1.15c-0.04-0.24-0.1-0.42-0.19-0.55
			c-0.09-0.13-0.2-0.23-0.34-0.31c-0.14-0.08-0.39-0.17-0.75-0.27v-0.56h4.97c1.43,0,2.6,0.16,3.51,0.47
			c0.91,0.32,1.68,0.78,2.31,1.39c0.63,0.61,1.1,1.38,1.41,2.28c0.31,0.91,0.47,2,0.47,3.26c0,1.28-0.15,2.4-0.44,3.38
			c-0.29,0.97-0.72,1.79-1.28,2.44c-0.48,0.57-1.08,1.05-1.78,1.42c-0.58,0.3-1.25,0.52-2.02,0.65c-0.76,0.13-1.78,0.19-3.04,0.19
			H682.42z M685.88,662.9c0.3,0.03,0.75,0.05,1.34,0.05c0.64,0,1.2-0.05,1.7-0.16c0.5-0.11,0.95-0.27,1.36-0.5
			c0.41-0.23,0.78-0.54,1.1-0.95c0.32-0.41,0.59-0.87,0.79-1.4c0.2-0.52,0.35-1.11,0.45-1.75c0.09-0.64,0.14-1.35,0.14-2.11
			c0-1.54-0.22-2.8-0.66-3.78c-0.44-0.98-1.07-1.71-1.87-2.16c-0.8-0.45-1.77-0.68-2.89-0.68c-0.52,0-1,0.02-1.46,0.05V662.9z"/>
		<path class="st4" d="M731.53,661.11c0,0.44,0.01,0.77,0.03,0.99c0.02,0.22,0.06,0.39,0.11,0.53c0.05,0.13,0.12,0.24,0.19,0.32
			c0.07,0.08,0.18,0.16,0.32,0.23c0.14,0.07,0.36,0.14,0.65,0.22v0.56h-4.75v-0.56c0.42-0.11,0.71-0.22,0.87-0.35
			s0.28-0.32,0.34-0.59c0.07-0.27,0.1-0.71,0.1-1.34v-4.75h-6.31v4.75c0,0.51,0.02,0.88,0.05,1.11c0.03,0.23,0.09,0.42,0.17,0.56
			c0.08,0.14,0.2,0.25,0.35,0.34c0.15,0.09,0.41,0.18,0.75,0.27v0.56h-4.78v-0.56c0.47-0.12,0.78-0.26,0.94-0.4
			c0.16-0.15,0.26-0.36,0.31-0.63c0.05-0.27,0.07-0.69,0.07-1.25v-9.81c0-0.52-0.02-0.9-0.06-1.14c-0.04-0.24-0.1-0.42-0.19-0.55
			c-0.09-0.13-0.2-0.24-0.34-0.32c-0.14-0.08-0.39-0.17-0.74-0.27v-0.56h4.78v0.56c-0.33,0.08-0.57,0.17-0.72,0.25
			c-0.15,0.08-0.26,0.19-0.35,0.31c-0.09,0.12-0.15,0.31-0.2,0.56c-0.04,0.25-0.06,0.64-0.06,1.16v4.02h6.31v-4.02
			c0-0.66-0.03-1.11-0.1-1.35c-0.06-0.24-0.17-0.43-0.32-0.56c-0.15-0.13-0.45-0.25-0.9-0.37v-0.56h4.75v0.56
			c-0.42,0.11-0.72,0.22-0.88,0.36c-0.17,0.13-0.28,0.33-0.34,0.59c-0.06,0.27-0.09,0.71-0.09,1.33V661.11z"/>
		<path class="st4" d="M754.57,648.46v3.43h-1.11c-0.11-0.37-0.23-0.7-0.35-0.98c-0.12-0.28-0.25-0.52-0.37-0.7
			c-0.13-0.19-0.27-0.34-0.43-0.45c-0.15-0.11-0.34-0.19-0.55-0.23c-0.21-0.04-0.47-0.06-0.76-0.06h-3.59v5.94h2.43
			c0.33,0,0.59-0.05,0.78-0.14c0.19-0.09,0.34-0.25,0.47-0.48c0.12-0.23,0.24-0.58,0.36-1.07h1.07v4.36h-1.07
			c-0.11-0.45-0.22-0.8-0.35-1.03c-0.13-0.23-0.28-0.4-0.46-0.49c-0.18-0.1-0.44-0.15-0.8-0.15h-2.43v6.55h3.53
			c0.37,0,0.67-0.03,0.9-0.1c0.23-0.07,0.43-0.17,0.59-0.33c0.17-0.15,0.31-0.36,0.44-0.61c0.13-0.25,0.24-0.51,0.32-0.78
			c0.09-0.27,0.2-0.66,0.36-1.17h1.12l-0.22,3.98h-10.51v-0.56c0.47-0.12,0.78-0.26,0.94-0.4c0.16-0.15,0.26-0.36,0.31-0.63
			c0.05-0.27,0.07-0.69,0.07-1.25v-9.81c0-0.52-0.02-0.9-0.06-1.14c-0.04-0.24-0.1-0.42-0.19-0.55c-0.09-0.13-0.2-0.24-0.34-0.32
			c-0.14-0.08-0.39-0.17-0.74-0.27v-0.56H754.57z"/>
		<path class="st4" d="M773.18,663.95v-0.56c0.38-0.07,0.66-0.16,0.84-0.25c0.19-0.09,0.32-0.22,0.42-0.38
			c0.09-0.16,0.14-0.38,0.14-0.65c0-0.26-0.03-0.54-0.09-0.84c-0.06-0.3-0.15-0.63-0.26-1l-0.42-1.46h-5.29l-0.39,1.11
			c-0.2,0.56-0.32,0.98-0.39,1.27c-0.06,0.29-0.09,0.55-0.09,0.78c0,0.45,0.12,0.79,0.35,1c0.23,0.21,0.58,0.35,1.06,0.42v0.56
			h-4.84v-0.56c0.42-0.07,0.79-0.31,1.11-0.74c0.31-0.42,0.62-1.03,0.91-1.82l4.73-12.56h1.79l3.86,12.65
			c0.18,0.59,0.34,1.04,0.48,1.35c0.14,0.31,0.31,0.55,0.5,0.73c0.2,0.17,0.47,0.3,0.81,0.39v0.56H773.18z M768.82,657.82h4.74
			l-2.16-7.32L768.82,657.82z"/>
		<path class="st4" d="M790.99,648.46v0.56c-0.35,0.06-0.61,0.14-0.79,0.23s-0.32,0.22-0.41,0.39s-0.14,0.39-0.14,0.67
			c0,0.26,0.03,0.54,0.09,0.83c0.06,0.3,0.15,0.64,0.26,1.01l2.65,9.26l3.26-9.33c0.05-0.14,0.09-0.29,0.14-0.45
			c0.05-0.16,0.09-0.31,0.12-0.47c0.04-0.15,0.06-0.28,0.07-0.4c0.01-0.11,0.02-0.22,0.02-0.32c0-0.45-0.1-0.79-0.31-0.99
			c-0.21-0.21-0.56-0.35-1.06-0.43v-0.56h4.76v0.56c-0.31,0.07-0.56,0.19-0.75,0.33c-0.19,0.14-0.38,0.37-0.56,0.69
			c-0.19,0.32-0.41,0.82-0.68,1.52l-4.71,12.57h-1.49l-3.82-12.65c-0.2-0.69-0.38-1.18-0.53-1.47c-0.15-0.29-0.32-0.51-0.5-0.66
			c-0.18-0.15-0.43-0.26-0.75-0.34v-0.56H790.99z"/>
		<path class="st4" d="M819.98,648.46v3.43h-1.11c-0.11-0.37-0.23-0.7-0.35-0.98c-0.12-0.28-0.25-0.52-0.37-0.7
			c-0.13-0.19-0.27-0.34-0.43-0.45c-0.15-0.11-0.34-0.19-0.55-0.23c-0.21-0.04-0.47-0.06-0.76-0.06h-3.59v5.94h2.43
			c0.33,0,0.59-0.05,0.78-0.14c0.19-0.09,0.34-0.25,0.47-0.48c0.12-0.23,0.24-0.58,0.36-1.07h1.07v4.36h-1.07
			c-0.11-0.45-0.22-0.8-0.35-1.03c-0.13-0.23-0.28-0.4-0.46-0.49c-0.18-0.1-0.44-0.15-0.8-0.15h-2.43v6.55h3.53
			c0.37,0,0.67-0.03,0.9-0.1c0.23-0.07,0.43-0.17,0.59-0.33c0.17-0.15,0.31-0.36,0.44-0.61c0.13-0.25,0.24-0.51,0.32-0.78
			c0.09-0.27,0.2-0.66,0.36-1.17h1.12l-0.22,3.98h-10.51v-0.56c0.47-0.12,0.78-0.26,0.94-0.4c0.16-0.15,0.26-0.36,0.31-0.63
			c0.05-0.27,0.07-0.69,0.07-1.25v-9.81c0-0.52-0.02-0.9-0.06-1.14c-0.04-0.24-0.1-0.42-0.19-0.55c-0.09-0.13-0.2-0.24-0.34-0.32
			c-0.14-0.08-0.39-0.17-0.74-0.27v-0.56H819.98z"/>
		<path class="st4" d="M840.22,657.81c0.27,0.45,0.5,0.85,0.69,1.19c0.19,0.34,0.38,0.72,0.57,1.15h0.15
			c-0.04-0.46-0.07-1.38-0.1-2.75c-0.03-1.37-0.05-2.61-0.05-3.71v-2.38c0-0.52-0.02-0.9-0.05-1.15c-0.03-0.24-0.08-0.43-0.17-0.56
			c-0.08-0.13-0.19-0.23-0.33-0.31c-0.14-0.08-0.39-0.17-0.73-0.27v-0.56h4.08v0.56c-0.34,0.09-0.58,0.17-0.72,0.25
			c-0.14,0.07-0.25,0.17-0.34,0.29c-0.09,0.12-0.15,0.3-0.2,0.54c-0.05,0.24-0.07,0.64-0.07,1.19v12.72h-1.42l-6.32-10.6
			c-0.39-0.66-0.67-1.14-0.84-1.44c-0.17-0.3-0.32-0.6-0.47-0.9h-0.19c0.05,0.58,0.09,1.64,0.11,3.16c0.02,1.52,0.03,3.04,0.03,4.56
			v2.31c0,0.51,0.02,0.88,0.05,1.11c0.03,0.23,0.09,0.42,0.17,0.56c0.08,0.14,0.2,0.25,0.35,0.34c0.15,0.09,0.41,0.18,0.75,0.27
			v0.56h-4.14v-0.56c0.47-0.12,0.78-0.26,0.94-0.4c0.16-0.15,0.26-0.36,0.31-0.63c0.05-0.27,0.07-0.69,0.07-1.25v-9.81
			c0-0.52-0.02-0.9-0.06-1.14c-0.04-0.24-0.1-0.42-0.19-0.55c-0.09-0.13-0.2-0.24-0.34-0.32c-0.14-0.08-0.39-0.17-0.74-0.27v-0.56
			h3.55L840.22,657.81z"/>
	</g>
	<rect x="53.59" y="645.79" class="st5" width="98.08" height="20.57"/>
	<rect x="856.43" y="645.79" class="st6" width="91.54" height="20.57"/>
</g>
</svg>
